<?xml version="1.0"?>
<svg xmlns="http://www.w3.org/2000/svg" xmlns:xlink="http://www.w3.org/1999/xlink" xmlns:svgjs="http://svgjs.com/svgjs" version="1.1" width="512" height="512" x="0" y="0" viewBox="0 0 512 512" style="enable-background:new 0 0 512 512" xml:space="preserve" class=""><g>
<path xmlns="http://www.w3.org/2000/svg" style="" d="M508.174,246.097c-4.502-5.101-115.433-125.136-253.175-125.136S8.328,240.997,3.825,246.097  c-5.101,5.702-5.101,14.105,0,19.807c4.502,5.1,113.432,125.136,251.174,125.136s248.672-120.035,253.175-125.136  C513.276,260.202,513.276,251.799,508.174,246.097z" fill="#e5e5e5" data-original="#e5e5e5" class=""/>
<path xmlns="http://www.w3.org/2000/svg" style="" d="M508.174,265.904c-4.502,5.1-115.433,125.136-253.175,125.136V120.96  c137.742,0,248.672,120.035,253.175,125.136C513.276,251.799,513.276,260.202,508.174,265.904z" fill="#d9d9d9" data-original="#d9d9d9" class=""/>
<path xmlns="http://www.w3.org/2000/svg" style="" d="M254.999,120.96c-74.421,0-135.04,60.619-135.04,135.04s60.619,135.04,135.04,135.04  s135.04-60.619,135.04-135.04S329.421,120.96,254.999,120.96z" fill="#c2e1fb" data-original="#4dbbeb" class=""/>
<path xmlns="http://www.w3.org/2000/svg" style="" d="M390.039,256c0,74.421-60.619,135.04-135.04,135.04V120.96  C329.421,120.96,390.039,181.579,390.039,256z" fill="#accae3" data-original="#159ce4" class=""/>
<path xmlns="http://www.w3.org/2000/svg" style="" d="M254.999,180.978c-41.412,0-75.022,33.61-75.022,75.022s33.61,75.022,75.022,75.022  s75.022-33.61,75.022-75.022S296.413,180.978,254.999,180.978z" fill="#787780" data-original="#787780" class=""/>
<path xmlns="http://www.w3.org/2000/svg" style="" d="M330.022,256c0,41.412-33.61,75.022-75.022,75.022V180.978  C296.413,180.978,330.022,214.588,330.022,256z" fill="#515b60" data-original="#57555c" class=""/>
<path xmlns="http://www.w3.org/2000/svg" style="" d="M254.999,240.997c-8.273,0-15.004-6.731-15.004-15.004s6.731-15.004,15.004-15.004  c8.273,0,15.004,6.731,15.004,15.004S263.274,240.997,254.999,240.997z" fill="#e5e5e5" data-original="#e5e5e5" class=""/>
<path xmlns="http://www.w3.org/2000/svg" style="" d="M254.999,210.988v30.009c8.273,0,15.004-6.731,15.004-15.004S263.274,210.988,254.999,210.988z" fill="#d9d9d9" data-original="#d9d9d9" class=""/>
<g xmlns="http://www.w3.org/2000/svg">
</g>
<g xmlns="http://www.w3.org/2000/svg">
</g>
<g xmlns="http://www.w3.org/2000/svg">
</g>
<g xmlns="http://www.w3.org/2000/svg">
</g>
<g xmlns="http://www.w3.org/2000/svg">
</g>
<g xmlns="http://www.w3.org/2000/svg">
</g>
<g xmlns="http://www.w3.org/2000/svg">
</g>
<g xmlns="http://www.w3.org/2000/svg">
</g>
<g xmlns="http://www.w3.org/2000/svg">
</g>
<g xmlns="http://www.w3.org/2000/svg">
</g>
<g xmlns="http://www.w3.org/2000/svg">
</g>
<g xmlns="http://www.w3.org/2000/svg">
</g>
<g xmlns="http://www.w3.org/2000/svg">
</g>
<g xmlns="http://www.w3.org/2000/svg">
</g>
<g xmlns="http://www.w3.org/2000/svg">
</g>
</g></svg>
